<svg id="visual" viewBox="0 0 675 900" width="675" height="900" xmlns="http://www.w3.org/2000/svg" xmlns:xlink="http://www.w3.org/1999/xlink" version="1.1"><g><g transform="translate(430 825)"><path d="M0 -28.3L24.5 -14.2L24.5 14.2L0 28.3L-24.5 14.2L-24.5 -14.2Z" fill="none" stroke="#FF5B24" stroke-width="1"></path></g><g transform="translate(256 318)"><path d="M0 -26L22.5 -13L22.5 13L0 26L-22.5 13L-22.5 -13Z" fill="none" stroke="#FF5B24" stroke-width="1"></path></g><g transform="translate(620 512)"><path d="M0 -24L20.8 -12L20.8 12L0 24L-20.8 12L-20.8 -12Z" fill="none" stroke="#FF5B24" stroke-width="1"></path></g><g transform="translate(491 864)"><path d="M0 -25L21.7 -12.5L21.7 12.5L0 25L-21.7 12.5L-21.7 -12.5Z" fill="none" stroke="#FF5B24" stroke-width="1"></path></g><g transform="translate(238 255)"><path d="M0 -26L22.5 -13L22.5 13L0 26L-22.5 13L-22.5 -13Z" fill="none" stroke="#FF5B24" stroke-width="1"></path></g><g transform="translate(135 216)"><path d="M0 -25L21.7 -12.5L21.7 12.5L0 25L-21.7 12.5L-21.7 -12.5Z" fill="none" stroke="#FF5B24" stroke-width="1"></path></g><g transform="translate(394 235)"><path d="M0 -27L23.4 -13.5L23.4 13.5L0 27L-23.4 13.5L-23.4 -13.5Z" fill="none" stroke="#FF5B24" stroke-width="1"></path></g><g transform="translate(606 854)"><path d="M0 -27L23.4 -13.5L23.4 13.5L0 27L-23.4 13.5L-23.4 -13.5Z" fill="none" stroke="#FF5B24" stroke-width="1"></path></g><g transform="translate(263 744)"><path d="M0 -24L20.8 -12L20.8 12L0 24L-20.8 12L-20.8 -12Z" fill="none" stroke="#FF5B24" stroke-width="1"></path></g><g transform="translate(169 826)"><path d="M0 -26L22.5 -13L22.5 13L0 26L-22.5 13L-22.5 -13Z" fill="none" stroke="#FF5B24" stroke-width="1"></path></g><g transform="translate(110 365)"><path d="M0 -25L21.7 -12.5L21.7 12.5L0 25L-21.7 12.5L-21.7 -12.5Z" fill="none" stroke="#FF5B24" stroke-width="1"></path></g></g></svg>