<svg id="visual" viewBox="0 0 960 540" width="960" height="540" xmlns="http://www.w3.org/2000/svg" xmlns:xlink="http://www.w3.org/1999/xlink" version="1.1"><g><g transform="translate(747 505)"><path d="M0 -26.1L22.6 -13.1L22.6 13.1L0 26.1L-22.6 13.1L-22.6 -13.1Z" fill="none" stroke="#FF5B24" stroke-width="1"></path></g><g transform="translate(499 249)"><path d="M0 -25L21.7 -12.5L21.7 12.5L0 25L-21.7 12.5L-21.7 -12.5Z" fill="none" stroke="#FF5B24" stroke-width="1"></path></g><g transform="translate(90 372)"><path d="M0 -23L19.9 -11.5L19.9 11.5L0 23L-19.9 11.5L-19.9 -11.5Z" fill="none" stroke="#FF5B24" stroke-width="1"></path></g><g transform="translate(219 59)"><path d="M0 -22L19.1 -11L19.1 11L0 22L-19.1 11L-19.1 -11Z" fill="none" stroke="#FF5B24" stroke-width="1"></path></g><g transform="translate(844 42)"><path d="M0 -24L20.8 -12L20.8 12L0 24L-20.8 12L-20.8 -12Z" fill="none" stroke="#FF5B24" stroke-width="1"></path></g><g transform="translate(600 472)"><path d="M0 -25L21.7 -12.5L21.7 12.5L0 25L-21.7 12.5L-21.7 -12.5Z" fill="none" stroke="#FF5B24" stroke-width="1"></path></g><g transform="translate(443 196)"><path d="M0 -25L21.7 -12.5L21.7 12.5L0 25L-21.7 12.5L-21.7 -12.5Z" fill="none" stroke="#FF5B24" stroke-width="1"></path></g><g transform="translate(126 91)"><path d="M0 -24L20.8 -12L20.8 12L0 24L-20.8 12L-20.8 -12Z" fill="none" stroke="#FF5B24" stroke-width="1"></path></g><g transform="translate(244 344)"><path d="M0 -24L20.8 -12L20.8 12L0 24L-20.8 12L-20.8 -12Z" fill="none" stroke="#FF5B24" stroke-width="1"></path></g><g transform="translate(646 340)"><path d="M0 -25L21.7 -12.5L21.7 12.5L0 25L-21.7 12.5L-21.7 -12.5Z" fill="none" stroke="#FF5B24" stroke-width="1"></path></g><g transform="translate(508 333)"><path d="M0 -24L20.8 -12L20.8 12L0 24L-20.8 12L-20.8 -12Z" fill="none" stroke="#FF5B24" stroke-width="1"></path></g></g></svg>